<svg width="1512" height="982" viewBox="0 0 1512 982" fill="none" xmlns="http://www.w3.org/2000/svg">
<g clip-path="url(#clip0_541_667)">
<rect width="1512" height="982" fill="white"/>
<rect width="1512" height="982" fill="url(#paint0_linear_541_667)"/>
<path d="M378 628H462V712H378V628Z" fill="#FEFFF3"/>
<path d="M294 628H378V712H294V628Z" fill="#FEFFF3"/>
<path d="M546 628H630V712H546V628Z" fill="#FEFFF3"/>
<path d="M378 544H462V628H378V544Z" fill="#FEFFF3"/>
<path d="M462 544H546V628H462V544Z" fill="#FEFFF3"/>
<path d="M462 628H546V712H462V628Z" fill="#FEFFF3"/>
<path d="M378 796H462V712H378V796Z" fill="#FEFFF3"/>
<path d="M294 796H378V712H294V796Z" fill="#FEFFF3"/>
<path d="M546 796H630V712H546V796Z" fill="#FEFFF3"/>
<path d="M378 880H462V796H378V880Z" fill="#FEFFF3"/>
<path d="M462 880H546V796H462V880Z" fill="#FEFFF3"/>
<path d="M462 796H546V712H462V796Z" fill="#FEFFF3"/>
<path d="M236.557 581.882H323.088V666.863H236.557V581.882Z" fill="#784235"/>
<path d="M323.088 666.863H409.619V751.843H323.088V666.863Z" fill="#784235"/>
<path d="M496.15 751.843H582.681V836.823H496.15V751.843Z" fill="#784235"/>
<path d="M409.619 751.843H496.15V836.823H409.619V751.843Z" fill="#784235"/>
<path d="M582.681 751.843H669.211V836.823H582.681V751.843Z" fill="#784235"/>
<path d="M669.211 751.843H755.742V836.823H669.211V751.843Z" fill="#784235"/>
<path d="M842.273 666.863H928.804V751.843H842.273V666.863Z" fill="#784235"/>
<path d="M1015.34 581.882H1101.87V666.863H1015.34V581.882Z" fill="#784235"/>
<path d="M1101.87 411.921H1188.4V496.902H1101.87V411.921Z" fill="#784235"/>
<path d="M928.804 581.882H1015.34V666.863H928.804V581.882Z" fill="#784235"/>
<path d="M1101.87 496.902H1188.4V581.882H1101.87V496.902Z" fill="#784235"/>
<path d="M1188.4 326.941H1274.93V411.921H1188.4V326.941Z" fill="#784235"/>
<path d="M1188.4 241.961H1274.93V326.941H1188.4V241.961Z" fill="#784235"/>
<path d="M1274.93 156.98H1361.46V241.961H1274.93V156.98Z" fill="#784235"/>
<path d="M1361.46 72H1447.99V156.98H1361.46V72Z" fill="#784235"/>
<path d="M1447.99 72H1534.52V156.98H1447.99V72Z" fill="#784235"/>
<path d="M755.742 751.843H842.273V836.823H755.742V751.843Z" fill="#784235"/>
<path d="M150.026 581.882H236.557V666.863H150.026V581.882Z" fill="#784235"/>
<path d="M63.495 496.902H150.026V581.882H63.495V496.902Z" fill="#784235"/>
<path d="M-23.0359 496.902H63.495V581.882H-23.0359V496.902Z" fill="#784235"/>
<path d="M236.557 630.442H323.088V715.423H236.557V630.442Z" fill="#784235"/>
<path d="M323.088 715.423H409.619V800.403H323.088V715.423Z" fill="#784235"/>
<path d="M496.15 800.403H582.681V885.384H496.15V800.403Z" fill="#784235"/>
<path d="M409.619 800.403H496.15V885.384H409.619V800.403Z" fill="#784235"/>
<path d="M582.681 800.403H669.211V885.384H582.681V800.403Z" fill="#784235"/>
<path d="M669.211 800.403H755.742V885.384H669.211V800.403Z" fill="#784235"/>
<path d="M842.273 715.423H928.804V800.403H842.273V715.423Z" fill="#784235"/>
<path d="M1015.34 630.442H1101.87V715.423H1015.34V630.442Z" fill="#784235"/>
<path d="M1101.87 460.482H1188.4V545.462H1101.87V460.482Z" fill="#784235"/>
<path d="M928.804 630.442H1015.34V715.423H928.804V630.442Z" fill="#784235"/>
<path d="M1101.87 545.462H1188.4V630.442H1101.87V545.462Z" fill="#784235"/>
<path d="M1188.4 375.501H1274.93V460.482H1188.4V375.501Z" fill="#784235"/>
<path d="M1188.4 290.521H1274.93V375.501H1188.4V290.521Z" fill="#784235"/>
<path d="M1274.93 205.541H1361.46V290.521H1274.93V205.541Z" fill="#784235"/>
<path d="M1361.46 120.56H1447.99V205.541H1361.46V120.56Z" fill="#784235"/>
<path d="M1447.99 120.56H1534.52V205.541H1447.99V120.56Z" fill="#784235"/>
<path d="M755.742 800.403H842.273V885.384H755.742V800.403Z" fill="#784235"/>
<path d="M150.026 630.442H236.557V715.423H150.026V630.442Z" fill="#784235"/>
<path d="M63.495 545.462H150.026V630.442H63.495V545.462Z" fill="#784235"/>
<path d="M-23.0359 545.462H63.495V630.442H-23.0359V545.462Z" fill="#784235"/>
<path d="M-24.066 581.376L267.461 605.151L479.153 853.516L828.882 786.746L1142.56 552.544L1220.33 287.486L1407.81 120.56H1548.94L1568 1025.5L-24.066 1001.73L-56 853.516V581.376H-24.066Z" fill="#784235"/>
<path d="M4.82546 539.392H-23.0359V498.925H150.026V539.392H136.095H114.128V518.39H86.2663V539.392H65.9061V518.39H33.2226V539.392H19.2919V518.39H4.82546V539.392Z" fill="#183112"/>
<path d="M154.359 622H122V582H323V622H306.82H281.307V601.241H248.947V622H225.3V601.241H187.341V622H171.161V601.241H154.359V622Z" fill="#183112"/>
<path d="M1216.26 282.428H1188.4V241.961H1361.46V282.428H1347.53H1325.56V261.426H1297.7V282.428H1277.34V261.426H1244.66V282.428H1230.72V261.426H1216.26V282.428Z" fill="#183112"/>
<path d="M1389.32 112.467H1361.46V72H1534.52V112.467H1520.59H1498.62V91.4651H1470.76V112.467H1450.4V91.4651H1417.72V112.467H1403.79V91.4651H1389.32V112.467Z" fill="#183112"/>
<path d="M1386.42 198.459H1407.81V157.992H1274.93V198.459H1285.62H1302.49V177.457H1323.89V198.459H1339.52V177.457H1364.62V198.459H1375.31V177.457H1386.42V198.459Z" fill="#183112"/>
<path d="M1099.93 622.349H1132.77V581.882H928.804V622.349H945.223H971.113V601.347H1003.95V622.349H1027.95V601.347H1066.47V622.349H1082.88V601.347H1099.93V622.349Z" fill="#183112"/>
<path d="M250.515 707.467H220V667H409.544V707.467H394.287H370.227V686.465H339.712V707.467H317.413V686.465H281.616V707.467H266.359V686.465H250.515V707.467Z" fill="#183112"/>
<path d="M987.474 707.329H1015.34V666.863H842.273V707.329H856.204H878.172V686.328H906.033V707.329H926.393V686.328H959.077V707.329H973.007V686.328H987.474V707.329Z" fill="#183112"/>
<path d="M1202.12 452.388H1221.36V411.922H1101.87V452.388H1111.49H1126.65V431.387H1145.89V452.388H1159.95V431.387H1182.52V452.388H1192.13V431.387H1202.12V452.388Z" fill="#183112"/>
<path d="M517 740V753H583V740H517Z" fill="#EE5B22"/>
<path d="M517 740V753H583V740H517Z" fill="#EE5B22"/>
<path d="M594 740V753H660V740H594Z" fill="#EE5B22"/>
<path d="M594 740V753H660V740H594Z" fill="#EE5B22"/>
<path d="M676 740V753H742V740H676Z" fill="#EE5B22"/>
<path d="M676 740V753H742V740H676Z" fill="#EE5B22"/>
<path d="M538.426 730.901V740H558V736.254H546.745V722.338H538.426V707.887H526.681V702H512V716.451H526.681V730.901H538.426Z" fill="#336726"/>
<path d="M561.574 730.901V740H542V736.254H553.255V722.338H561.574V707.887H573.319V702H588V716.451H573.319V730.901H561.574Z" fill="#336726"/>
<path d="M620.426 730.901V740H640V736.254H628.745V722.338H620.426V707.887H608.681V702H594V716.451H608.681V730.901H620.426Z" fill="#336726"/>
<path d="M643.574 730.901V740H624V736.254H635.255V722.338H643.574V707.887H655.319V702H670V716.451H655.319V730.901H643.574Z" fill="#336726"/>
<path d="M700.426 730.901V740H720V736.254H708.745V722.338H700.426V707.887H688.681V702H674V716.451H688.681V730.901H700.426Z" fill="#336726"/>
<path d="M723.574 730.901V740H704V736.254H715.255V722.338H723.574V707.887H735.319V702H750V716.451H735.319V730.901H723.574Z" fill="#336726"/>
<path d="M776 741V756H831.5V749.5V687H828V672H819.5L819 693H823V741H819V749.5H810.5V729H819L819.5 697H810.5V676H804.5L805.5 703.5H810.5V720.5H805.5H804.5L805.5 749.5H798.5V717.5H791.5V712.5H798.5V687H791.5V703.5H784V724H791.5V749.5H784V732H776V703.5H770.5V697H764V712.5H770.5V741H776Z" fill="#F2C573"/>
<path d="M504 819.5V753H847V819.5H504Z" fill="#4B2319"/>
<path d="M153.5 774V880.5H95V733.5H-1V984H1510V531H1447V665H1386V631.5H1325V867.5H1218.5V733.5H1123.5V957.5H995.5V907H819V957.5H520.5H404V925.5H232V774H153.5Z" fill="#4F4F4F"/>
<path d="M503.5 731H410V753H439V1009.5H503.5V731Z" fill="#3F9ED9" stroke="#3F9ED9"/>
<path d="M92.5 500H-8V147H92.5V500Z" fill="#562417"/>
<path d="M190.5 146.5H98.5H0V0H229.849H270V11V61.5H326V146.5H190.5Z" fill="#204217" stroke="#204217"/>
</g>
<defs>
<linearGradient id="paint0_linear_541_667" x1="756" y1="0" x2="756" y2="982" gradientUnits="userSpaceOnUse">
<stop stop-color="#0040A1"/>
<stop offset="0.5" stop-color="#E67373"/>
<stop offset="0.78" stop-color="#FFA237"/>
</linearGradient>
<clipPath id="clip0_541_667">
<rect width="1512" height="982" fill="white"/>
</clipPath>
</defs>
</svg>
