<svg width="683" height="828" viewBox="0 0 683 828" fill="none" xmlns="http://www.w3.org/2000/svg">
<rect x="236" y="52.5" width="252" height="529.435" fill="black"/>
<rect x="172" y="124.275" width="259" height="504.224" fill="black"/>
<rect x="43" y="242.979" width="248" height="385.521" fill="black"/>
<rect x="461" y="124.275" width="84" height="469.559" fill="black"/>
<rect x="451" y="202.01" width="148" height="426.49" fill="black"/>
<rect x="506" y="242.979" width="127" height="352.957" fill="black"/>
<rect x="507" y="331.218" width="168" height="297.282" fill="black"/>
<rect x="85" y="156.84" width="168" height="471.66" fill="black"/>
<path d="M159 531.5V503V478H178V531.5H159Z" fill="#7B3E1E" stroke="black"/>
<path d="M121 505V461.5H216V505H203V502V499H197.5V491.5H186.5V499H177V505H163.5V499H154V489H147V494H138V499H134V505H121Z" fill="#476A4F"/>
<path d="M539 204.5V124.5H579V165.5H643.5V204.5H682.5V335.5H630.5V244H596V204.5H539Z" fill="#368368"/>
<path d="M508.5 613.5L493 606.5L508.5 595.5H576.5L562.5 603.5L589.5 613.5H539V641.5H527V613.5H508.5Z" fill="#338B5A" stroke="black"/>
<path d="M593.5 611.5L578 604.5L593.5 593.5H661.5L647.5 601.5L674.5 611.5H624V639.5H612V611.5H593.5Z" fill="#338B5A" stroke="black"/>
<path d="M278 86.5V49.5H297.5V70.5H324.5V172H304V193.5H334.5V285H318V304L334.5 304.5V355.5H314V318H297.5V273H314V212H285.5V146H304V86.5H278Z" fill="#368368"/>
<path d="M326.5 231H351.5V210H326.5V231Z" fill="#F4A536"/>
<path d="M282.5 287H307.5V266H282.5V287Z" fill="#F4A536"/>
<path d="M315.5 153H340.5V132H315.5V153Z" fill="#F4A536"/>
<path d="M295.5 355H320.5V334H295.5V355Z" fill="#F4A536"/>
<path d="M289.5 114H314.5V93H289.5V114Z" fill="#F4A536"/>
<path d="M315.5 84H340.5V63H315.5V84Z" fill="#F4A536"/>
<path d="M324.5 322H349.5V301H324.5V322Z" fill="#F4A536"/>
<path d="M215.5 54.5H281.5H488.5V85.5H521.5V0H346V27H215.5V54.5Z" fill="#368368"/>
<path d="M600 234.301V202.5H580.367V220.549H553.184V307.786H573.823V326.265H543.116V404.907H559.728V421.237L543.116 421.667V465.5H563.755V433.27H580.367V394.593H563.755V342.165H592.449V285.44H573.823V234.301H600Z" fill="#368368"/>
<path d="M551.17 358.495H526V340.446H551.17V358.495Z" fill="#F4A536"/>
<path d="M595.47 406.626H570.3V388.577H595.47V406.626Z" fill="#F4A536"/>
<path d="M562.245 291.456H537.075V273.407H562.245V291.456Z" fill="#F4A536"/>
<path d="M582.381 465.071H557.211V447.021H582.381V465.071Z" fill="#F4A536"/>
<path d="M588.422 257.936H563.252V239.887H588.422V257.936Z" fill="#F4A536"/>
<path d="M562.245 232.152H537.075V214.103H562.245V232.152Z" fill="#F4A536"/>
<path d="M553.184 436.708H528.014V418.659H553.184V436.708Z" fill="#F4A536"/>
<rect x="399" y="22.5" width="64" height="606" fill="#3F9ED9"/>
<path d="M675 654.852H591V823.5H88V654.852H43V628.5H675V654.852Z" fill="#3F9ED9"/>
<path d="M591 823.5H463V802.5H547V759.5H591V823.5Z" fill="#8A8A8A"/>
<path d="M211 613.5H253V738.5H337V822.5H85V697.5H127V530.5H211V613.5Z" fill="url(#paint0_linear_547_284)"/>
<path d="M170.5 585.5V566V549.5H195.5V649.5H220.5V638.5H231.5V657H253V613.5H211V530.5H127V601H138.5V566H151.5V585.5H170.5Z" fill="#368368"/>
<path d="M201 159.5V66H139V107H41V208H0V444H48.5V338.5H69V245H111V159.5H201Z" fill="#368368"/>
<path d="M629 668.5H573V726H525V763H491.5V747H453.5V781H412V804.5H374V827.5H623V758H656V651.5H629V668.5Z" fill="#368368"/>
<defs>
<linearGradient id="paint0_linear_547_284" x1="211" y1="530.5" x2="211" y2="695.5" gradientUnits="userSpaceOnUse">
<stop stop-color="#CDCDCD"/>
<stop offset="1" stop-color="#8A8A8A"/>
</linearGradient>
</defs>
</svg>
