<svg width="696" height="865" viewBox="0 0 696 865" fill="none" xmlns="http://www.w3.org/2000/svg">
<rect width="252" height="529.435" transform="matrix(-1 0 0 1 447.5 50.5)" fill="black"/>
<rect width="259" height="504.224" transform="matrix(-1 0 0 1 511.5 122.275)" fill="black"/>
<rect width="248" height="385.521" transform="matrix(-1 0 0 1 640.5 240.979)" fill="black"/>
<rect width="84" height="469.559" transform="matrix(-1 0 0 1 222.5 122.275)" fill="black"/>
<rect width="148" height="426.49" transform="matrix(-1 0 0 1 232.5 200.01)" fill="black"/>
<rect width="127" height="352.957" transform="matrix(-1 0 0 1 177.5 240.979)" fill="black"/>
<rect width="269" height="297" transform="matrix(-1 0 0 1 269.5 332)" fill="black"/>
<rect width="168" height="471.66" transform="matrix(-1 0 0 1 598.5 154.84)" fill="black"/>
<path d="M524.5 529.5V501V476H505.5V529.5H524.5Z" fill="#7B3E1E" stroke="black"/>
<path d="M562.5 503V459.5H467.5V503H480.5V500V497H486V489.5H497V497H506.5V503H520V497H529.5V487H536.5V492H545.5V497H549.5V503H562.5Z" fill="#476A4F"/>
<path d="M139 200.5V122.5H104.5V163.5H40V202.5H1V401.5H28.5V351H53V242H87.5V200.5H139Z" fill="#368368"/>
<path d="M480.5 158V121H461V142H434V243.5H454.5V265H424V356.5H440.5V375.5L424 376V427H444.5V389.5H461V344.5H444.5V283.5H473V217.5H454.5V158H480.5Z" fill="#368368"/>
<path d="M432.5 313H407.5V292H432.5V313Z" fill="#F4A536"/>
<path d="M476.5 369H451.5V348H476.5V369Z" fill="#F4A536"/>
<path d="M443.5 235H418.5V214H443.5V235Z" fill="#F4A536"/>
<path d="M463.5 437H438.5V416H463.5V437Z" fill="#F4A536"/>
<path d="M469.5 196H444.5V175H469.5V196Z" fill="#F4A536"/>
<path d="M443.5 166H418.5V145H443.5V166Z" fill="#F4A536"/>
<path d="M434.5 404H409.5V383H434.5V404Z" fill="#F4A536"/>
<path d="M464.5 82.8655H399.363H195.069V121.5H162.5V44.5H195.069V0H335.706V41.0526H464.5V82.8655Z" fill="#368368"/>
<path d="M176.5 153.801V122H196.133V140.049H223.316V227.286H202.677V245.765H233.384V324.407H216.772V340.737L233.384 341.167V385H212.745V352.77H196.133V314.093H212.745V261.665H184.051V204.94H202.677V153.801H176.5Z" fill="#368368"/>
<path d="M225.33 277.995H250.5V259.946H225.33V277.995Z" fill="#F4A536"/>
<path d="M181.03 326.126H206.2V308.077H181.03V326.126Z" fill="#F4A536"/>
<path d="M214.255 210.956H239.425V192.907H214.255V210.956Z" fill="#F4A536"/>
<path d="M194.119 384.571H219.289V366.521H194.119V384.571Z" fill="#F4A536"/>
<path d="M188.078 177.436H213.248V159.387H188.078V177.436Z" fill="#F4A536"/>
<path d="M214.255 151.652H239.425V133.603H214.255V151.652Z" fill="#F4A536"/>
<path d="M223.316 356.208H248.486V338.159H223.316V356.208Z" fill="#F4A536"/>
<path d="M133.298 601.783L154.5 590.978L133.298 574H40.2824L59.4326 586.348L22.5 601.783H91.5777V645H107.992V601.783H133.298Z" fill="#338B5A" stroke="black"/>
<path d="M175.671 605.435L162.5 595.543L175.671 580H233.453L221.557 591.304L244.5 605.435H201.588V645H191.391V605.435H175.671Z" fill="#338B5A" stroke="black"/>
<path d="M638 627H0V680.5H38.5V741H110.5V865H301.5V796.5H557.5V776H638V627Z" fill="#3F9ED9"/>
<path d="M366.5 731.052V796H557.5V780.113H639L640.5 405H598V594.601H560.5V529.697H452.5V594.601H404.5V731.052H366.5Z" fill="url(#paint0_linear_547_196)"/>
<path d="M473.5 569H453V529H560.5V587H599V619H531.5V543.5H517V569H489.5V543.5H473.5V569Z" fill="#368368"/>
<path d="M622 83.5L447.5 83V122L511.5 123V154.5L592.5 155.5V243H641V351H695.5V310H675V126.5H622V83.5Z" fill="#368368"/>
<defs>
<linearGradient id="paint0_linear_547_196" x1="505.5" y1="405" x2="505.5" y2="798" gradientUnits="userSpaceOnUse">
<stop stop-color="#C2C2C2"/>
<stop offset="1" stop-color="#8A8A8A"/>
</linearGradient>
</defs>
</svg>
