<svg width="565" height="628" viewBox="0 0 565 628" fill="none" xmlns="http://www.w3.org/2000/svg">
<g clip-path="url(#clip0_547_367)">
<path d="M81.5406 107.112C77.2643 109.192 68.6286 111.753 55.8205 111.753C20.3535 111.753 0 87.4504 0 56.4444C0 19.5326 25.9351 0 58.1762 0C70.6757 0 77.2799 2.38308 81.5337 4.63491L77.5937 26.7095C72.858 24.62 67.8312 22.717 59.1504 22.717C43.7959 22.717 27.509 31.8141 27.509 56.0369C27.509 77.7056 40.4956 89.1669 59.2786 89.1669C66.7184 89.1669 71.7677 87.7128 77.5954 85.0483L81.5406 107.112Z" fill="white"/>
<path d="M140.433 27.3742C130.878 27.3742 121.632 31.6897 116.925 38.6213H116.635V0.386719L92.6016 8.67569V108.428H116.635V61.8322C116.635 55.1043 121.026 47.867 129.447 47.867C138.455 47.867 141.925 54.9316 141.925 65.2082V108.43H165.98V61.903C165.98 38.1516 155.754 27.3742 140.433 27.3742Z" fill="white"/>
<path d="M202.235 76.9597C203.119 87.0636 211.531 92.4325 224.53 92.5482C232.363 92.6086 241.47 90.3395 247.537 86.7787L251.163 105.413C242.032 109.983 231.6 111.753 220.982 111.753C192.374 111.753 177.04 94.6118 177.04 68.3513C177.04 42.9491 193.528 26.5576 218.236 26.5576C243.699 26.5576 255.114 45.2354 255.114 68.638C255.114 71.1039 254.809 75.1206 254.535 76.9597H202.235ZM231.11 59.9207C231.11 54.0528 228.236 43.7918 217.109 43.7918C207.354 43.7918 202.753 52.1585 202.07 59.9207H231.11Z" fill="white"/>
<path d="M283.365 108.428L256.81 29.8904H283.325L297.752 85.4455H298.238L312.666 29.8904H339.193L312.639 108.428H283.365Z" fill="white"/>
<path d="M346.006 55.7191C346.006 44.1646 345.642 36.6269 345.148 29.8886H367.79L368.476 44.4876H369.085C373.047 32.9331 380.652 28.5434 388.473 28.1013C392.191 27.8854 394.204 28.1479 396.505 28.5917V51.5556C394.302 51.1256 389.931 50.6197 386.857 50.9012C377.608 51.749 372.011 58.451 370.44 66.1667C370.125 67.7658 369.962 69.541 369.962 71.6184V108.427H346.015V55.7191H346.006Z" fill="white"/>
<path d="M480.966 69.1543C480.966 94.895 465.399 111.751 440.173 111.751C414.941 111.751 399.363 94.895 399.363 69.1543C399.363 43.4102 414.941 26.5559 440.173 26.5559C465.399 26.5559 480.966 43.4119 480.966 69.1543ZM456.049 69.1543C456.049 56.3738 451.639 45.2493 440.173 45.2493C428.691 45.2493 424.303 56.372 424.303 69.1543C424.303 81.947 428.691 93.0542 440.173 93.0542C451.642 93.0542 456.049 81.947 456.049 69.1543Z" fill="white"/>
<path d="M491.655 54.9299C491.655 45.1282 491.294 36.7598 490.786 29.8903H513.428L513.946 40.8784H514.431C517.567 35.7686 525.865 27.3743 538.812 27.3743C554.657 27.3743 565 38.1517 565 61.271V108.43H540.987V64.8801C540.987 54.7745 537.506 47.8653 528.817 47.8653C522.154 47.8653 518.016 52.533 516.48 57.0073C515.912 58.6461 515.679 60.8721 515.679 63.1205V108.428H491.655V54.9299Z" fill="white"/>
<path d="M0.858398 316.628V129.315L282.961 222.977L0.858398 316.628Z" fill="white"/>
<path d="M0.928711 316.642L282.961 410.294L564.977 316.642V129.337L282.961 222.977L0.928711 316.642Z" fill="white"/>
<path d="M0.874853 534.359L0.850586 346.985L282.935 440.642L0.874853 534.359Z" fill="white"/>
<path d="M564.991 346.985L282.881 440.612L0.90625 534.324L282.935 628L564.991 534.295V346.985Z" fill="white"/>
</g>
<defs>
<clipPath id="clip0_547_367">
<rect width="565" height="628" fill="white"/>
</clipPath>
</defs>
</svg>
