<svg width="32" height="32" viewBox="0 0 32 32" fill="none" xmlns="http://www.w3.org/2000/svg">
<path d="M7.11111 17.7778H10.6667V21.3333H7.11111V17.7778Z" fill="#FFFF20"/>
<path d="M10.6667 17.7778H14.2222V21.3333H10.6667V17.7778Z" fill="#FFFF20"/>
<path d="M7.11111 21.3333H10.6667V24.8889H7.11111V21.3333Z" fill="#E1AF27"/>
<path d="M7.11111 7.11111H10.6667V10.6667H7.11111V7.11111Z" fill="#FEE335"/>
<path d="M10.6667 7.11111H14.2222V10.6667H10.6667V7.11111Z" fill="#3978D6"/>
<path d="M7.11111 10.6667H10.6667V14.2222H7.11111V10.6667Z" fill="#3978D6"/>
<path d="M7.11111 14.2222H10.6667V17.7778H7.11111V14.2222Z" fill="#3978D6"/>
<path d="M10.6667 14.2222H14.2222V17.7778H10.6667V14.2222Z" fill="#3978D6"/>
<path d="M17.7778 7.11111H21.3333V10.6667H17.7778V7.11111Z" fill="#3978D6"/>
<path d="M21.3333 10.6667H24.8889V14.2222H21.3333V10.6667Z" fill="#3978D6"/>
<path d="M17.7778 14.2222H21.3333V17.7778H17.7778V14.2222Z" fill="#3978D6"/>
<path d="M21.3333 14.2222H24.8889V17.7778H21.3333V14.2222Z" fill="#3978D6"/>
<path d="M21.3333 7.11111H24.8889V10.6667H21.3333V7.11111Z" fill="#E1AF27"/>
<path d="M21.3333 21.3333H24.8889V24.8889H21.3333V21.3333Z" fill="#CD7A1B"/>
<path d="M14.2222 21.3333H17.7778V24.8889H14.2222V21.3333Z" fill="#FFFF20"/>
<path d="M17.7778 17.7778H21.3333V21.3333H17.7778V17.7778Z" fill="#E1AF27"/>
<path d="M21.3333 17.7778H24.8889V21.3333H21.3333V17.7778Z" fill="#E1AF27"/>
<path d="M17.7778 21.3333H21.3333V24.8889H17.7778V21.3333Z" fill="#E1AF27"/>
<path d="M10.6667 21.3333H14.2222V24.8889H10.6667V21.3333Z" fill="#FFFF20"/>
<path d="M14.2222 17.7778H17.7778V21.3333H14.2222V17.7778Z" fill="#FFFF20"/>
<path d="M7.11111 3.55556H10.6667V7.11111H7.11111V3.55556Z" fill="#FEE335"/>
<path d="M3.55556 7.11111H7.11111V10.6667H3.55556V7.11111Z" fill="#FEE335"/>
<path d="M10.6667 3.55556H14.2222V7.11111H10.6667V3.55556Z" fill="#FEE335"/>
<path d="M14.2222 3.55556H17.7778V7.11111H14.2222V3.55556Z" fill="#FEE335"/>
<path d="M3.55556 10.6667H7.11111V14.2222H3.55556V10.6667Z" fill="#FEE335"/>
<path d="M3.55556 14.2222H7.11111V17.7778H3.55556V14.2222Z" fill="#FEE335"/>
<path d="M0 14.2222H3.55556V17.7778H0V14.2222Z" fill="black"/>
<path d="M0 17.7778H3.55556V21.3333H0V17.7778Z" fill="black"/>
<path d="M0 21.3333H3.55556V24.8889H0V21.3333Z" fill="black"/>
<path d="M3.55556 24.8889H7.11111V28.4444H3.55556V24.8889Z" fill="black"/>
<path d="M7.11111 28.4444H10.6667V32H7.11111V28.4444Z" fill="black"/>
<path d="M10.6667 28.4444H14.2222V32H10.6667V28.4444Z" fill="black"/>
<path d="M14.2222 28.4444H17.7778V32H14.2222V28.4444Z" fill="black"/>
<path d="M17.7778 28.4444H21.3333V32H17.7778V28.4444Z" fill="black"/>
<path d="M21.3333 28.4444H24.8889V32H21.3333V28.4444Z" fill="black"/>
<path d="M24.8889 24.8889H28.4444V28.4444H24.8889V24.8889Z" fill="black"/>
<path d="M24.8889 24.8889H28.4444V28.4444H24.8889V24.8889Z" fill="black"/>
<path d="M28.4444 21.3333H32V24.8889H28.4444V21.3333Z" fill="black"/>
<path d="M28.4444 17.7778H32V21.3333H28.4444V17.7778Z" fill="black"/>
<path d="M28.4444 14.2222H32V17.7778H28.4444V14.2222Z" fill="black"/>
<path d="M28.4444 10.6667H32V14.2222H28.4444V10.6667Z" fill="black"/>
<path d="M28.4444 7.11111H32V10.6667H28.4444V7.11111Z" fill="black"/>
<path d="M24.8889 3.55556H28.4444V7.11111H24.8889V3.55556Z" fill="black"/>
<path d="M21.3333 0H24.8889V3.55556H21.3333V0Z" fill="black"/>
<path d="M17.7778 0H21.3333V3.55556H17.7778V0Z" fill="black"/>
<path d="M10.6667 0H14.2222V3.55556H10.6667V0Z" fill="black"/>
<path d="M7.11111 0H10.6667V3.55556H7.11111V0Z" fill="black"/>
<path d="M3.55556 3.55556H7.11111V7.11111H3.55556V3.55556Z" fill="black"/>
<path d="M0 7.11111H3.55556V10.6667H0V7.11111Z" fill="black"/>
<path d="M0 10.6667H3.55556V14.2222H0V10.6667Z" fill="black"/>
<path d="M14.2222 0H17.7778V3.55556H14.2222V0Z" fill="black"/>
<path d="M17.7778 3.55556H21.3333V7.11111H17.7778V3.55556Z" fill="#E1AF27"/>
<path d="M21.3333 3.55556H24.8889V7.11111H21.3333V3.55556Z" fill="#E1AF27"/>
<path d="M24.8889 7.11111H28.4444V10.6667H24.8889V7.11111Z" fill="#E1AF27"/>
<path d="M24.8889 10.6667H28.4444V14.2222H24.8889V10.6667Z" fill="#E1AF27"/>
<path d="M24.8889 14.2222H28.4444V17.7778H24.8889V14.2222Z" fill="#E1AF27"/>
<path d="M14.2222 7.11111H17.7778V10.6667H14.2222V7.11111Z" fill="#FFFF20"/>
<path d="M14.2222 7.11111H17.7778V10.6667H14.2222V7.11111Z" fill="#FFFF20"/>
<path d="M14.2222 7.11111H17.7778V10.6667H14.2222V7.11111Z" fill="#FFFF20"/>
<path d="M14.2222 7.11111H17.7778V10.6667H14.2222V7.11111Z" fill="#FFFF20"/>
<path d="M14.2222 10.6667H17.7778V14.2222H14.2222V10.6667Z" fill="#FFFF20"/>
<path d="M14.2222 10.6667H17.7778V14.2222H14.2222V10.6667Z" fill="#FFFF20"/>
<path d="M14.2222 10.6667H17.7778V14.2222H14.2222V10.6667Z" fill="#FFFF20"/>
<path d="M14.2222 10.6667H17.7778V14.2222H14.2222V10.6667Z" fill="#FFFF20"/>
<path d="M10.6667 10.6667H14.2222V14.2222H10.6667V10.6667Z" fill="#FFFF20"/>
<path d="M10.6667 10.6667H14.2222V14.2222H10.6667V10.6667Z" fill="#FFFF20"/>
<path d="M10.6667 10.6667H14.2222V14.2222H10.6667V10.6667Z" fill="#FFFF20"/>
<path d="M10.6667 10.6667H14.2222V14.2222H10.6667V10.6667Z" fill="#FFFF20"/>
<path d="M17.7778 10.6667H21.3333V14.2222H17.7778V10.6667Z" fill="#FFFF20"/>
<path d="M17.7778 10.6667H21.3333V14.2222H17.7778V10.6667Z" fill="#FFFF20"/>
<path d="M17.7778 10.6667H21.3333V14.2222H17.7778V10.6667Z" fill="#FFFF20"/>
<path d="M17.7778 10.6667H21.3333V14.2222H17.7778V10.6667Z" fill="#FFFF20"/>
<path d="M14.2222 14.2222H17.7778V17.7778H14.2222V14.2222Z" fill="#FFFF20"/>
<path d="M14.2222 14.2222H17.7778V17.7778H14.2222V14.2222Z" fill="#FFFF20"/>
<path d="M14.2222 14.2222H17.7778V17.7778H14.2222V14.2222Z" fill="#FFFF20"/>
<path d="M14.2222 14.2222H17.7778V17.7778H14.2222V14.2222Z" fill="#FFFF20"/>
<path d="M14.2222 7.11111H17.7778V10.6667H14.2222V7.11111Z" fill="#FFFF20"/>
<path d="M14.2222 7.11111H17.7778V10.6667H14.2222V7.11111Z" fill="#FFFF20"/>
<path d="M14.2222 7.11111H17.7778V10.6667H14.2222V7.11111Z" fill="#FFFF20"/>
<path d="M14.2222 7.11111H17.7778V10.6667H14.2222V7.11111Z" fill="#FFFF20"/>
<path d="M14.2222 10.6667H17.7778V14.2222H14.2222V10.6667Z" fill="#FFFF20"/>
<path d="M14.2222 10.6667H17.7778V14.2222H14.2222V10.6667Z" fill="#FFFF20"/>
<path d="M14.2222 10.6667H17.7778V14.2222H14.2222V10.6667Z" fill="#FFFF20"/>
<path d="M14.2222 10.6667H17.7778V14.2222H14.2222V10.6667Z" fill="#FFFF20"/>
<path d="M10.6667 10.6667H14.2222V14.2222H10.6667V10.6667Z" fill="#FFFF20"/>
<path d="M10.6667 10.6667H14.2222V14.2222H10.6667V10.6667Z" fill="#FFFF20"/>
<path d="M10.6667 10.6667H14.2222V14.2222H10.6667V10.6667Z" fill="#FFFF20"/>
<path d="M10.6667 10.6667H14.2222V14.2222H10.6667V10.6667Z" fill="#FFFF20"/>
<path d="M17.7778 10.6667H21.3333V14.2222H17.7778V10.6667Z" fill="#FFFF20"/>
<path d="M17.7778 10.6667H21.3333V14.2222H17.7778V10.6667Z" fill="#FFFF20"/>
<path d="M17.7778 10.6667H21.3333V14.2222H17.7778V10.6667Z" fill="#FFFF20"/>
<path d="M17.7778 10.6667H21.3333V14.2222H17.7778V10.6667Z" fill="#FFFF20"/>
<path d="M14.2222 14.2222H17.7778V17.7778H14.2222V14.2222Z" fill="#FFFF20"/>
<path d="M14.2222 14.2222H17.7778V17.7778H14.2222V14.2222Z" fill="#FFFF20"/>
<path d="M14.2222 14.2222H17.7778V17.7778H14.2222V14.2222Z" fill="#FFFF20"/>
<path d="M14.2222 14.2222H17.7778V17.7778H14.2222V14.2222Z" fill="#FFFF20"/>
<path d="M7.11111 24.8889H10.6667V28.4444H7.11111V24.8889Z" fill="#CD7A1B"/>
<path d="M10.6667 24.8889H14.2222V28.4444H10.6667V24.8889Z" fill="#CD7A1B"/>
<path d="M3.55556 21.3333H7.11111V24.8889H3.55556V21.3333Z" fill="#CD7A1B"/>
<path d="M3.55556 17.7778H7.11111V21.3333H3.55556V17.7778Z" fill="#CD7A1B"/>
<path d="M14.2222 24.8889H17.7778V28.4444H14.2222V24.8889Z" fill="#935611"/>
<path d="M24.8889 24.8889H21.3333V28.4444H24.8889V24.8889Z" fill="#935611"/>
<path d="M21.3333 24.8889H17.7778V28.4444H21.3333V24.8889Z" fill="#935611"/>
<path d="M28.4444 21.3333H24.8889V24.8889H28.4444V21.3333Z" fill="#935611"/>
<path d="M28.4444 17.7778H24.8889V21.3333H28.4444V17.7778Z" fill="#935611"/>
</svg>
