<svg width="32" height="32" viewBox="0 0 32 32" fill="none" xmlns="http://www.w3.org/2000/svg">
<path d="M7.11122 3.55554H10.6668V7.1111H7.11122V3.55554Z" fill="#E81E1E"/>
<path d="M10.6668 3.55554H14.2223V7.1111H10.6668V3.55554Z" fill="#E81E1E"/>
<path d="M14.2223 7.1111H17.7779V10.6667H14.2223V7.1111Z" fill="#E81E1E"/>
<path d="M17.7779 3.55554H21.3334V7.1111H17.7779V3.55554Z" fill="#E81E1E"/>
<path d="M21.3334 3.55554H24.889V7.1111H21.3334V3.55554Z" fill="#E81E1E"/>
<path d="M24.889 7.1111H28.4446V10.6667H24.889V7.1111Z" fill="#E81E1E"/>
<path d="M17.7779 7.1111H21.3334V10.6667H17.7779V7.1111Z" fill="#E81E1E"/>
<path d="M21.3334 7.1111H24.889V10.6667H21.3334V7.1111Z" fill="#E81E1E"/>
<path d="M10.6668 7.1111H14.2223V10.6667H10.6668V7.1111Z" fill="#E81E1E"/>
<path d="M3.55566 7.1111H7.11122V10.6667H3.55566V7.1111Z" fill="#E81E1E"/>
<path d="M3.55566 10.6667H7.11122V14.2222H3.55566V10.6667Z" fill="#E81E1E"/>
<path d="M7.11122 10.6667H10.6668V14.2222H7.11122V10.6667Z" fill="#E81E1E"/>
<path d="M7.11122 14.2222H10.6668V17.7778H7.11122V14.2222Z" fill="#E81E1E"/>
<path d="M10.6668 17.7778H14.2223V21.3333H10.6668V17.7778Z" fill="#E81E1E"/>
<path d="M14.2223 21.3333H17.7779V24.8889H14.2223V21.3333Z" fill="#E81E1E"/>
<path d="M17.7779 17.7778H21.3334V21.3333H17.7779V17.7778Z" fill="#E81E1E"/>
<path d="M21.3334 14.2222H24.889V17.7778H21.3334V14.2222Z" fill="#E81E1E"/>
<path d="M24.889 10.6667H28.4446V14.2222H24.889V10.6667Z" fill="#E81E1E"/>
<path d="M14.2223 17.7778H17.7779V21.3333H14.2223V17.7778Z" fill="#E81E1E"/>
<path d="M21.3334 10.6667H24.889V14.2222H21.3334V10.6667Z" fill="#E81E1E"/>
<path d="M10.6668 10.6667H21.3334V17.7778H10.6668V10.6667Z" fill="#E81E1E"/>
<path d="M3.55566 14.2222H7.11122V17.7778H3.55566V14.2222Z" fill="#A31F1F"/>
<path d="M7.11122 17.7778H10.6668V21.3333H7.11122V17.7778Z" fill="#A31F1F"/>
<path d="M10.6668 21.3333H14.2223V24.8889H10.6668V21.3333Z" fill="#A31F1F"/>
<path d="M14.2223 24.8889H17.7779V28.4445H14.2223V24.8889Z" fill="#A31F1F"/>
<path d="M17.7779 21.3333H21.3334V24.8889H17.7779V21.3333Z" fill="#A31F1F"/>
<path d="M21.3334 17.7778H24.889V21.3333H21.3334V17.7778Z" fill="#A31F1F"/>
<path d="M24.889 14.2222H28.4446V17.7778H24.889V14.2222Z" fill="#A31F1F"/>
<rect x="7.11133" y="7.11108" width="3.55556" height="3.55556" fill="#FFDADA"/>
<path d="M3.55556 3.55556H7.11111V7.11111H3.55556V3.55556Z" fill="black"/>
<path d="M7.11111 0H10.6667V3.55556H7.11111V0Z" fill="black"/>
<path d="M10.6667 0H14.2222V3.55556H10.6667V0Z" fill="black"/>
<path d="M14.2222 3.55556H17.7778V7.11111H14.2222V3.55556Z" fill="black"/>
<path d="M17.7778 0H21.3333V3.55556H17.7778V0Z" fill="black"/>
<path d="M21.3333 0H24.8889V3.55556H21.3333V0Z" fill="black"/>
<path d="M24.8889 3.55556H28.4444V7.11111H24.8889V3.55556Z" fill="black"/>
<path d="M28.4444 7.11111H32V10.6667H28.4444V7.11111Z" fill="black"/>
<path d="M28.4444 10.6667H32V14.2222H28.4444V10.6667Z" fill="black"/>
<path d="M28.4444 14.2222H32V17.7778H28.4444V14.2222Z" fill="black"/>
<path d="M24.8889 17.7778H28.4444V21.3333H24.8889V17.7778Z" fill="black"/>
<path d="M21.3333 21.3333H24.8889V24.8889H21.3333V21.3333Z" fill="black"/>
<path d="M17.7778 24.8889H21.3333V28.4444H17.7778V24.8889Z" fill="black"/>
<path d="M10.6667 24.8889H14.2222V28.4444H10.6667V24.8889Z" fill="black"/>
<path d="M7.11111 21.3333H10.6667V24.8889H7.11111V21.3333Z" fill="black"/>
<path d="M3.55556 17.7778H7.11111V21.3333H3.55556V17.7778Z" fill="black"/>
<path d="M0 14.2222H3.55556V17.7778H0V14.2222Z" fill="black"/>
<path d="M0 10.6667H3.55556V14.2222H0V10.6667Z" fill="black"/>
<path d="M0 7.11111H3.55556V10.6667H0V7.11111Z" fill="black"/>
<path d="M14.2222 28.4444H17.7778V32H14.2222V28.4444Z" fill="black"/>
</svg>
