<svg width="32" height="32" viewBox="0 0 32 32" fill="none" xmlns="http://www.w3.org/2000/svg">
<path d="M0 7.11111H3.55556V10.6667H0V7.11111Z" fill="black"/>
<path d="M3.55556 3.55556H7.11111V7.11111H3.55556V3.55556Z" fill="black"/>
<path d="M7.11111 0H10.6667V3.55556H7.11111V0Z" fill="black"/>
<path d="M10.6667 0H14.2222V3.55556H10.6667V0Z" fill="black"/>
<path d="M0 10.6667H3.55556V14.2222H0V10.6667Z" fill="black"/>
<path d="M3.55556 14.2222H7.11111V17.7778H3.55556V14.2222Z" fill="black"/>
<path d="M7.11111 17.7778H10.6667V21.3333H7.11111V17.7778Z" fill="black"/>
<path d="M10.6667 21.3333H14.2222V24.8889H10.6667V21.3333Z" fill="black"/>
<path d="M14.2222 21.3333H17.7778V24.8889H14.2222V21.3333Z" fill="black"/>
<path d="M14.2222 3.55556H17.7778V7.11111H14.2222V3.55556Z" fill="black"/>
<path d="M17.7778 7.11111H21.3333V10.6667H17.7778V7.11111Z" fill="black"/>
<path d="M21.3333 10.6667H24.8889V14.2222H21.3333V10.6667Z" fill="black"/>
<path d="M21.3333 14.2222H24.8889V17.7778H21.3333V14.2222Z" fill="black"/>
<path d="M21.3333 17.7778H24.8889V21.3333H21.3333V17.7778Z" fill="black"/>
<path d="M17.7778 21.3333H21.3333V24.8889H17.7778V21.3333Z" fill="black"/>
<path d="M21.3333 24.8889H24.8889V28.4444H21.3333V24.8889Z" fill="black"/>
<path d="M21.3333 28.4444H24.8889V32H21.3333V28.4444Z" fill="black"/>
<path d="M24.8889 28.4444H28.4444V32H24.8889V28.4444Z" fill="black"/>
<path d="M24.8889 21.3333H28.4444V24.8889H24.8889V21.3333Z" fill="black"/>
<path d="M28.4444 24.8889H32V28.4444H28.4444V24.8889Z" fill="black"/>
<path d="M28.4444 28.4444H32V32H28.4444V28.4444Z" fill="black"/>
<path d="M28.4444 21.3333H32V24.8889H28.4444V21.3333Z" fill="black"/>
<path d="M24.8891 24.8889H28.4446V28.4444H24.8891V24.8889Z" fill="#FCE3B6"/>
<path d="M21.3335 21.3333H24.8891V24.8889H21.3335V21.3333Z" fill="#FCE3B6"/>
<path d="M14.2221 7.11108H17.7776V10.6666H14.2221V7.11108Z" fill="#B4855F"/>
<path d="M10.6665 10.6666H14.2221V14.2222H10.6665V10.6666Z" fill="#B4855F"/>
<path d="M17.7776 10.6666H21.3332V14.2222H17.7776V10.6666Z" fill="#B4855F"/>
<path d="M14.2222 10.6667H17.7777V14.2222H14.2222V10.6667Z" fill="#9A7455"/>
<path d="M14.2222 14.2222H17.7777V17.7778H14.2222V14.2222Z" fill="#9A7455"/>
<path d="M17.7777 14.2222H21.3333V17.7778H17.7777V14.2222Z" fill="#9A7455"/>
<path d="M17.7776 17.7778H21.3332V21.3333H17.7776V17.7778Z" fill="#7F5A3C"/>
<path d="M10.6665 14.2222H14.2221V17.7778H10.6665V14.2222Z" fill="#7F5A3C"/>
<path d="M14.2221 17.7778H17.7776V21.3333H14.2221V17.7778Z" fill="#7F5A3C"/>
<path d="M10.6669 17.7778H14.2224V21.3333H10.6669V17.7778Z" fill="#5D3C22"/>
<path d="M7.11133 14.2222H10.6669V17.7778H7.11133V14.2222Z" fill="#5D3C22"/>
<path d="M3.55566 10.6667H7.11122V14.2222H3.55566V10.6667Z" fill="#A31F1F"/>
<path d="M10.6668 3.55554H14.2223V7.1111H10.6668V3.55554Z" fill="#A31F1F"/>
<path d="M7.11122 3.55554H10.6668V7.1111H7.11122V3.55554Z" fill="#E53535"/>
<path d="M10.6668 7.1111H14.2223V10.6667H10.6668V7.1111Z" fill="#E53535"/>
<path d="M7.11122 10.6667H10.6668V14.2222H7.11122V10.6667Z" fill="#E53535"/>
<path d="M3.55566 7.1111H7.11122V10.6667H3.55566V7.1111Z" fill="#E53535"/>
<rect x="7.11133" y="7.11108" width="3.55556" height="3.55556" fill="#E2C99C"/>
<rect x="24.8887" y="24.8889" width="3.55556" height="3.55556" fill="#FDF2DE"/>
</svg>
