<svg width="939" height="1028" viewBox="0 0 939 1028" fill="none" xmlns="http://www.w3.org/2000/svg">
<path d="M938.5 541H169.5H67V650H184.5V745H360H463H618H853.5V658.5H938.5V541Z" fill="#761D1D"/>
<path d="M173.891 503.172V541H68.0205V520.401H50V469.09H68.0205V503.172H84.6894V527.891H113.072V497.929H98.6553V441H116.676V484.071H128.389V527.891H148.662V493.434H161.727V461.599H182V503.172H173.891Z" fill="#A01919"/>
<path d="M294.5 321.5V484.5V540.5H186V321.5H294.5Z" fill="#160000"/>
<path d="M371 296V348H313V296H371Z" fill="#F38C31"/>
<path d="M182 290V342H124V290H182Z" fill="#F38C31"/>
<path d="M201.5 0H312.5V56H411.5V112.5H510V258H456V359H368.5V318H122V419H38.5V318H0V166.5H38.5V99H122V56H201.5V0Z" fill="#A01919"/>
<path d="M296 765.5H236V745H359V826.5H367.5V915.5H350.5V843.5H343.5V765.5H311.5V787H324V866.5H303.5V885H288V843.5H311.5V804H296V765.5Z" fill="#A01919"/>
<path d="M183.794 918.907V745H240.381V778.37V843.184H259V947.143H240.381V872.703H222.492V791.846H209.349V958.694H188.54V1028H167V918.907H183.794Z" fill="#A01919"/>
</svg>
