<svg width="1275" height="875" viewBox="0 0 1275 875" fill="none" xmlns="http://www.w3.org/2000/svg">
<path d="M1268.5 484V376.5H212V351V334.25V317.5H152.25H92.5H38.5H0V874.5H280.5H335.5V783H538V736.5H1268.5V605.5V484Z" fill="#761D1D"/>
<path d="M46 359.5V320H216V359.5H128V344.5H83V359.5H46Z" fill="#A01919"/>
<path d="M225.5 420.896V376.5H1274.5V432.5H1223.95V411.815H1133.07V432.5H1078.3V395.167H1006.08V418.374H915.806V398.194H781.596V429.977H696.738V398.194H573.361V411.815H464.429V398.194H290.498V420.896H225.5Z" fill="#A01919"/>
<path d="M225.5 420.896V376.5H1274.5V432.5H1223.95V411.815H1133.07V432.5H1078.3V395.167H1006.08V418.374H915.806V398.194H781.596V429.977H696.738V398.194H573.361V411.815H464.429V398.194H290.498V420.896H225.5Z" fill="#A01919"/>
<path d="M804.391 344.672V382.5H698.52V361.901H680.5V310.59H698.52V344.672H715.189V369.391H743.572V339.429H729.155V282.5H747.176V325.571H758.889V369.391H779.162V334.934H792.227V303.099H812.5V344.672H804.391Z" fill="#A01919"/>
<path d="M1130.5 337.5V388H1248V360.5H1268V292H1248V337.5H1229.5V370.5H1198V330.5H1214V254.5H1194V312H1181V370.5H1158.5V324.5H1144V282H1121.5V337.5H1130.5Z" fill="#A01919"/>
<path d="M548.933 328.354V388.5H645.981V355.747H662.5V274.163H645.981V328.354H630.701V367.657H604.684V320.017H617.899V229.5H601.381V297.983H590.643V367.657H572.06V312.871H560.084V262.253H541.5V328.354H548.933Z" fill="#A01919"/>
<path d="M219 420.896V376.5H1274.5V432.5H1223.95V411.815H1133.07V432.5H1078.3V395.167H1006.08V418.374H915.806V398.194H781.596V429.977H696.738V398.194H573.361V411.815H464.429V398.194H290.498V420.896H219Z" fill="#A01919"/>
<path d="M900.5 157.5V320.5V376.5H989V157.5H900.5Z" fill="#160000"/>
<path d="M833.5 190.5V229.5H877.5V190.5H833.5Z" fill="#F38C31"/>
<path d="M1008.5 197.5V229.5H1051.5V197.5H1008.5Z" fill="#F38C31"/>
<path d="M1046.96 0H825.5V38.6681H770V98.9169H736.5V159.166H760.771V242.81H811V208.855H1064V261H1118.51V208.855H1151.5V83.3889H1118.51V27.4879H1046.96V0Z" fill="#A01919"/>
</svg>
