<svg width="1512" height="1000" viewBox="0 0 1512 1000" fill="none" xmlns="http://www.w3.org/2000/svg">
<g clip-path="url(#clip0_586_475)">
<path d="M88 935H32V484H493V697.5H413V766.5H262.5V822.5H184V876H88V935Z" fill="#F2E3B1"/>
<path d="M1530 877H1586V426H1125V639.5H1200V704.5L1355.5 708.5V764.5H1434V818H1530V877Z" fill="#F2E3B1"/>
<path d="M0 563V241.5V141H1517V921H1458.5V706H1372V612H1296V563H1202V667H1075V582.5H1016V644.5H960V582.5H841.5V706H679V644.5H552V706H463.5H375V657H341V706H302V582.5H237V644.5H157V791H91H37.5V983H0V563Z" fill="#761D1D"/>
<path d="M0 387.519V124.02V70H1524V441.539H1475.47V376.52H1400.42V416.118H1319.37V387.519H1221.8V468.671H1117.73V441.539H1026.67V495.559H851.559V479.67H789.518V564H643.422V527.335H467.807V564H422.277V366.987H295.694V441.539H237.156V479.67H103.568V387.519H0Z" fill="#272525"/>
<path d="M0 188.302V23.3721V-129H1531V324.209H1435.63V161.233H1367V253.605H1294.84V202.814H1203V333.419H1049.09V287.93H940.601V375H777.106V237.14H678.706V333.419H567.187V273.419H400.159V333.419H212.947V213.698H157.44V253.605H52.4799V188.302H0Z" fill="#2E2C2C"/>
<path d="M0 55.6634V-75.1668V-198H1518V7.68164H1348.89V32.6321H1179.78V109.723H1046.69V80.6139H855.063V222H747.492V157.385H594.892V192.891H480.817V32.6321H422.779V109.723H143.094V55.6634H0Z" fill="#3C3B3B"/>
</g>
<defs>
<clipPath id="clip0_586_475">
<rect width="1512" height="1000" fill="white"/>
</clipPath>
</defs>
</svg>
