<svg width="1512" height="982" viewBox="0 0 1512 982" fill="none" xmlns="http://www.w3.org/2000/svg">
<g clip-path="url(#clip0_556_457)">
<rect width="1512" height="982" fill="#3C3B3B"/>
<path d="M804 601.786V420.48V294H1468V601.786H1351.07V825.976H1305.57V915H964.841V813.49H911.933V601.786H804Z" fill="#2F2E2E"/>
<path d="M934.299 455.504H801V197V159.5H968V197H1024.5V141H1059V197H1302V130H1470V197V470H1415.88V405.978H1377.29V470H1312.15V337.728H1189.37V436.177H1040.54V388.462H934.299V455.504Z" fill="#494949"/>
<path d="M154.602 -216.624V-113.904H96.0635V-255.687H0V56.5H211V29H679V101.5H791V29H997.16V71H1512V-451H1448.96V-321.756H1387.92V-354.067H1326.88V-126.443H1220.31V-255.687H1125.24V-39.6369H997.16V-88.3446H820.543V-39.6369H521.845H405.268V-70.5012H233.154V-216.624H154.602Z" fill="#4F4F4F"/>
</g>
<defs>
<clipPath id="clip0_556_457">
<rect width="1512" height="982" fill="white"/>
</clipPath>
</defs>
</svg>
